<?xml version="1.0" standalone="no"?>
<!DOCTYPE svg PUBLIC "-//W3C//DTD SVG 20010904//EN"
 "http://www.w3.org/TR/2001/REC-SVG-20010904/DTD/svg10.dtd">
<svg version="1.0" xmlns="http://www.w3.org/2000/svg"
 width="700.000000pt" height="700.000000pt" viewBox="0 0 700.000000 700.000000"
 preserveAspectRatio="xMidYMid meet">
<metadata>
Created by potrace 1.11, written by Peter Selinger 2001-2013
</metadata>
<g transform="translate(0.000000,700.000000) scale(0.100000,-0.100000)"
fill="#000000" stroke="none">
<path d="M3777 5594 c-6 -5 -242 -15 -432 -19 -121 -3 -339 -7 -485 -10 -146
-4 -290 -8 -320 -10 -72 -4 -202 -13 -315 -22 -49 -3 -161 -6 -249 -6 -144 0
-159 -1 -163 -17 -3 -10 -16 -21 -30 -25 -56 -14 -71 -138 -38 -315 35 -190
216 -689 381 -1047 13 -29 35 -77 49 -107 14 -30 25 -60 25 -66 0 -12 -57
-241 -130 -525 -28 -110 -55 -218 -60 -240 -4 -22 -27 -121 -50 -220 -42 -182
-46 -200 -55 -245 -3 -14 -7 -36 -10 -50 -13 -62 -35 -200 -41 -250 -3 -30 -9
-80 -14 -110 -4 -30 -7 -93 -5 -140 3 -125 35 -175 116 -186 24 -3 46 -8 48
-10 2 -2 -19 -31 -46 -66 -69 -87 -144 -202 -181 -273 -62 -123 -64 -197 -8
-239 34 -26 68 -32 266 -42 63 -3 135 -7 160 -9 25 -2 97 -6 160 -10 63 -3
140 -8 170 -10 30 -3 93 -7 140 -10 89 -5 226 -14 320 -20 30 -2 102 -6 160
-10 58 -3 125 -8 150 -10 24 -2 98 -6 165 -10 66 -4 136 -8 155 -10 29 -3 203
-13 325 -19 128 -6 230 56 325 200 49 75 116 224 149 334 l20 65 78 -2 c159
-4 231 67 261 257 10 62 9 428 -2 515 -3 22 -8 69 -11 105 -7 73 -13 143 -19
210 -19 204 -24 291 -27 448 l-3 132 42 43 c24 24 39 46 36 50 -4 4 -23 7 -41
7 l-34 0 6 58 c11 106 15 136 41 262 30 151 33 192 17 197 -19 7 -43 -72 -68
-219 -3 -18 -8 -40 -10 -48 -2 -8 -6 -32 -9 -52 -3 -21 -9 -55 -12 -75 -7 -43
-11 -70 -13 -95 -1 -20 -18 -25 -18 -5 0 19 -13 153 -17 173 -4 19 -13 81 -22
139 -6 38 -30 167 -39 210 -3 11 -9 40 -14 65 -24 114 -105 412 -156 575 -108
343 -220 589 -315 690 -21 22 -30 42 -32 75 l-3 45 -133 0 c-73 0 -134 0 -135
-1z m-1938 -167 c5 -13 39 -127 76 -253 131 -448 272 -892 320 -1007 10 -24
10 -39 -1 -79 -7 -28 -14 -52 -16 -53 -2 -2 -28 51 -57 118 -30 67 -64 145
-77 172 -101 224 -217 554 -280 800 -36 139 -46 264 -24 305 15 27 48 26 59
-3z m2320 -162 c57 -118 125 -287 174 -435 65 -199 78 -243 133 -450 27 -101
78 -353 99 -485 28 -177 39 -285 28 -286 -4 0 -86 -1 -181 -2 l-173 -2 -9 35
c-23 87 -81 404 -95 525 -4 28 -8 61 -10 75 -7 50 -15 116 -20 175 -3 33 -7
83 -10 110 -11 109 -17 202 -30 410 -2 44 -7 177 -10 295 l-6 215 26 -30 c14
-16 52 -84 84 -150z m-1746 -1507 c136 -275 283 -467 425 -553 34 -21 62 -41
62 -44 0 -3 -9 -17 -20 -31 -11 -14 -20 -28 -20 -33 0 -4 -13 -27 -28 -52
l-28 -44 -111 167 c-133 200 -235 375 -354 613 l-89 177 11 53 11 53 32 -75
c17 -41 66 -145 109 -231z m72 -343 c38 -66 120 -195 181 -287 l113 -168 -36
-52 c-32 -48 -180 -250 -210 -288 -36 -45 -232 -283 -266 -324 -10 -11 -26
-30 -35 -41 -9 -11 -56 -68 -104 -126 l-87 -105 -58 4 c-32 2 -64 9 -70 14
-30 24 -46 190 -29 298 4 25 10 59 12 75 5 32 21 126 29 172 3 16 8 44 11 63
3 19 19 96 36 170 16 74 31 144 34 155 8 39 77 322 106 435 16 63 31 122 33
130 2 8 22 91 46 183 l42 169 91 -179 c51 -98 123 -232 161 -298z m2129 -117
c-2 -40 -6 -89 -8 -108 -2 -19 -7 -64 -11 -100 -17 -164 -63 -277 -144 -356
-91 -89 -121 -92 -671 -59 -42 3 -127 7 -190 10 -63 3 -146 8 -185 11 -38 3
-118 7 -176 9 -137 4 -164 18 -297 152 -99 101 -103 106 -88 126 9 12 35 57
58 99 23 42 45 75 48 73 10 -6 76 -14 170 -20 52 -4 118 -8 145 -10 291 -20
1027 -28 1106 -12 l36 7 -26 53 c-46 88 -44 94 8 38 28 -30 56 -51 63 -48 12
4 55 62 127 170 13 20 28 37 32 37 4 0 6 -33 3 -72z m60 -148 c4 -58 9 -127
12 -155 2 -27 6 -75 9 -105 2 -30 7 -91 10 -135 3 -44 8 -90 10 -101 21 -98
24 -515 5 -584 -7 -25 -14 -54 -16 -64 -6 -34 -53 -95 -85 -112 -17 -8 -60
-17 -95 -18 -63 -3 -91 4 -81 20 5 8 49 202 62 269 39 214 72 424 90 570 3 28
8 61 10 75 2 14 7 50 10 80 3 30 12 91 20 135 14 79 24 168 25 214 0 55 8 9
14 -89z m-1831 -263 c33 -44 137 -143 179 -172 57 -38 123 -55 241 -60 392
-16 467 -20 642 -31 66 -5 192 -8 280 -9 149 0 163 2 209 24 50 25 106 74 144
126 16 23 20 25 18 10 -2 -11 -7 -47 -10 -80 -4 -33 -9 -73 -11 -90 -3 -16 -7
-46 -9 -65 -7 -57 -18 -134 -22 -155 -2 -11 -8 -45 -14 -75 -5 -30 -12 -68
-15 -85 -10 -58 -43 -211 -60 -276 -15 -63 -18 -66 -43 -64 -73 7 -185 15
-257 20 -44 3 -105 8 -135 10 -30 3 -89 7 -130 10 -185 11 -256 16 -294 20
-23 2 -93 7 -156 10 -63 3 -149 8 -190 10 -289 17 -419 24 -545 30 -60 2 -148
7 -195 9 -47 3 -148 8 -225 11 -77 4 -142 9 -144 11 -3 2 148 189 194 241 72
80 343 421 429 541 44 61 84 112 87 112 4 0 18 -15 32 -33z m-453 -922 c36 -2
119 -6 185 -9 127 -7 235 -12 405 -21 104 -6 132 -8 340 -21 58 -3 132 -8 165
-9 72 -3 262 -15 325 -20 25 -2 83 -7 130 -10 47 -3 108 -7 135 -10 28 -2 86
-7 130 -10 139 -11 168 -14 173 -19 9 -10 -70 -221 -116 -311 -31 -59 -66
-110 -107 -150 -83 -86 -119 -96 -295 -90 -74 3 -155 7 -180 10 -25 2 -97 7
-160 11 -63 3 -135 7 -160 9 -25 2 -90 6 -145 9 -55 4 -129 8 -165 11 -36 2
-108 7 -160 10 -52 3 -124 8 -160 10 -36 2 -108 7 -160 10 -52 3 -124 8 -160
10 -36 3 -103 7 -150 10 -47 3 -123 7 -170 10 -47 3 -121 8 -165 10 -108 6
-131 12 -148 38 -37 59 23 183 223 461 l55 76 135 -6 c74 -3 164 -7 200 -9z"/>
</g>
</svg>
