<?xml version="1.0" encoding="utf-8"?>
<!-- Generator: Adobe Illustrator 17.0.0, SVG Export Plug-In . SVG Version: 6.00 Build 0)  -->
<!DOCTYPE svg PUBLIC "-//W3C//DTD SVG 1.1//EN" "http://www.w3.org/Graphics/SVG/1.1/DTD/svg11.dtd">
<svg version="1.1" id="Calque_1" xmlns="http://www.w3.org/2000/svg" xmlns:xlink="http://www.w3.org/1999/xlink" x="0px" y="0px"
	 width="600px" height="600px" viewBox="0 0 600 600" enable-background="new 0 0 600 600" xml:space="preserve">
<g>
	<g>
		<path fill="#73958C" d="M369.169,292.266c14.72-0.405,25.351-0.402,39.661,0.419c-10.634,10.628-19.223,23.301-27.404,35.565
			c-10.629-8.998-17.167-21.675-17.573-35.986L369.169,292.266z"/>
		<g>
			<path fill="#73958C" d="M369.169,293.516c13.237-0.352,26.438-0.315,39.661,0.419c-0.295-0.711-0.589-1.423-0.884-2.134
				c-10.637,10.794-19.212,23.255-27.6,35.818c0.654-0.084,1.309-0.169,1.963-0.253c-10.416-9.081-16.593-21.248-17.206-35.102
				c-0.417,0.417-0.833,0.833-1.25,1.25C365.626,293.515,367.398,293.516,369.169,293.516c1.612,0,1.612-2.5,0-2.5
				c-1.772,0-3.544-0.001-5.315-0.001c-0.659,0-1.28,0.569-1.25,1.25c0.642,14.489,7.029,27.358,17.939,36.87
				c0.63,0.549,1.496,0.447,1.963-0.253c8.27-12.388,16.72-24.669,27.209-35.312c0.796-0.808,0.185-2.075-0.884-2.134
				c-13.224-0.734-26.425-0.771-39.661-0.419C367.56,291.059,367.556,293.559,369.169,293.516z"/>
		</g>
	</g>
	<g>
		<g>
			<path fill="#292760" d="M400.71,282.292c-2.252,22.463-0.51,45.139,1.44,67.557c1.762,20.252,4.439,40.691,3.678,61.057
				c-0.414,11.074-2.197,28.445-16.693,28.412c-7.811-0.018-15.673-1.07-23.459-1.705c-10.452-0.853-20.91-1.618-31.371-2.346
				c-42.38-2.949-84.808-5.232-127.239-7.315c-12.1-0.594-24.201-1.165-36.303-1.705c-1.651-0.074-3.486,0.058-5.118-0.252
				c-3.096-0.589-3.78-5.129-4.174-7.617c-1.795-11.321,0.705-23.795,2.568-34.93c2.792-16.685,6.589-33.202,10.505-49.653
				c8.152-34.243,17.693-68.18,25.032-102.613c0.503-2.358-3.112-3.362-3.616-0.997c-8.477,39.772-19.774,78.896-28.738,118.559
				c-3.88,17.167-7.584,34.513-9.315,52.051c-0.751,7.611-2.79,21.28,3.729,27.231c3.415,3.118,11.244,2.066,15.39,2.255
				c14.669,0.667,29.337,1.377,44.002,2.117c43.353,2.189,86.704,4.592,129.993,7.824c9.451,0.706,18.897,1.466,28.336,2.309
				c5.498,0.491,11.859,1.385,17.103-0.758c11.419-4.667,12.644-20.37,13.119-30.866c0.919-20.324-1.903-40.848-3.678-61.057
				c-1.968-22.412-3.692-45.1-1.44-67.557C404.702,279.887,400.949,279.91,400.71,282.292L400.71,282.292z"/>
		</g>
	</g>
	<g>
		<g>
			<path fill="#292760" d="M248.27,329.267c-18.782,34.908-46.946,64.464-71.516,95.276c-9.399,11.787-19.453,23.906-26.027,37.573
				c-3.016,6.269-6.027,16.242,2.47,19.615c4.645,1.844,10.852,1.453,15.763,1.763c11.826,0.747,23.653,1.494,35.479,2.241
				c31.643,1.998,63.286,3.997,94.929,5.995c10.416,0.658,20.833,1.316,31.249,1.973c6.007,0.379,11.869,1.026,17.648-1.234
				c10.054-3.932,16.584-13.683,21.255-22.933c6.914-13.692,10.891-28.851,14.239-43.744c6.879-30.61,10.437-61.933,14.2-93.043
				c3.367-27.835,5.977-56.145,12.691-83.428c0.578-2.348-3.038-3.344-3.616-0.997c-8.293,33.697-10.833,68.869-15.129,103.223
				c-4.457,35.643-8.491,72.957-21.491,106.708c-4.135,10.737-9.94,22.78-20.095,29.034c-5.772,3.555-11.875,3.159-18.294,2.753
				c-25.145-1.588-50.291-3.176-75.436-4.764c-28.53-1.802-57.059-3.603-85.589-5.405c-5.066-0.32-11.069,0.062-15.987-1.452
				c-9.197-2.832,0.569-17.801,3.177-22.095c13.107-21.579,30.582-40.672,46.486-60.179c16.787-20.589,34.195-41.499,46.832-64.986
				C252.654,329.031,249.416,327.137,248.27,329.267L248.27,329.267z"/>
		</g>
	</g>
	<g>
		<g>
			<path fill="#292760" d="M155.297,128.914c-25.612,2.365,23.075,109.334,27.682,119.454c13.186,28.96,27.906,57.541,45.664,83.991
				c6.601,9.831,13.719,19.527,22.142,27.889c5.2,5.162,11.552,10.583,19.071,11.591c7.429,0.997,15.366,0.659,22.854,1.029
				c15.86,0.784,31.719,1.568,47.579,2.352c8.584,0.424,17.468,1.585,26.068,1.105c8.886-0.496,16.414-4.91,21.727-11.937
				c6.21-8.215,8.713-18.979,10.093-28.981c1.852-13.425,1.545-27.091,0.49-40.57c-2.451-31.307-9.293-62.372-18.136-92.453
				c-6.598-22.445-13.914-46.706-26.789-66.501c-2.345-3.605-6.005-9.258-10.929-9.2c-5.584,0.066-11.167,0.133-16.751,0.199
				c-54.95,0.654-109.9,1.307-164.85,1.961C159.241,128.867,157.269,128.89,155.297,128.914c-2.417,0.029-2.419,3.779,0,3.75
				c49.732-0.592,99.463-1.183,149.195-1.775c10.551-0.126,21.102-0.251,31.654-0.377c3.481-0.041,7.003-0.836,9.402,1.206
				c5.637,4.799,9.065,12.764,12.175,19.277c5.457,11.429,9.839,23.377,13.856,35.376c9.994,29.847,17.499,60.8,21.599,92.02
				c1.896,14.439,2.984,29.053,2.414,43.619c-0.446,11.422-1.906,23.395-6.805,33.853c-3.805,8.122-10.135,14.449-19.108,16.288
				c-7.691,1.577-16.553-0.05-24.265-0.431c-15.818-0.782-31.636-1.564-47.454-2.346c-8.559-0.423-17.604-1.757-26.171-1.214
				c-7.04,0.447-13.763-6.072-18.352-10.568c-8.648-8.473-15.787-18.487-22.488-28.522c-17.75-26.581-32.37-55.352-45.56-84.419
				c-11.188-24.655-21.531-50.003-28.755-76.133c-1.239-4.481-10.24-35.035-1.338-35.857
				C157.684,132.443,157.705,128.691,155.297,128.914z"/>
		</g>
	</g>
	<g>
		<path fill="#A4D0B9" d="M347.059,120.394c-0.017,66.222,5.499,154.227,28.014,207.483l3.062,4.917
			c-34.818,3.404-86.825,0.391-119.169-2.055c-55.421-4.191-87.009-155.183-103.984-204.352l27.241,0.007
			c76.247-6.432,78.349-1.472,145.907-6.005L347.059,120.394z"/>
	</g>
</g>
</svg>
