<svg id="et3l0m35ek681" xmlns="http://www.w3.org/2000/svg" viewBox="0 0 1280 250" shape-rendering="geometricPrecision" text-rendering="geometricPrecision">
    <g>
        <g>
            <path id="wave" fill="#fff02a" d="M0,0L0,170.470803Q0,175.643187,0,180.476662C0,191.709047,0,203.667663,0,215.287372L0,222.202712C9.145534,216.473550,20.493119,213.923670,31.437775,211.712698C31.830185,211.569432,32.242979,211.471744,32.665300,211.422205C33.088819,211.262425,33.537023,211.156420,33.995900,211.107504C34.254027,211.014143,34.520361,210.938592,34.792387,210.881566L34.670571,210.881566C54.348463,206.040021,74.026354,201.198475,95.062958,197.970779Q99.907467,197.163855,104.789458,196.356930C133.847318,191.596894,163.172451,188.138608,192.646559,185.996024Q197.678477,185.544146,202.729136,185.189100C206.102489,184.971230,209.475842,184.793707,212.867936,184.680737C215.388580,184.438660,217.899854,184.212721,220.420498,184.002921Q231.777452,183.074958,243.200000,182.623081C279.687213,181.215898,316.234591,183.788890,351.971889,190.280791C388.703953,196.978262,424.283455,207.847531,459.975403,217.716213C478.116545,222.727213,496.304539,227.625242,514.689312,231.926148C523.703660,234.032220,532.764861,236.001115,541.863543,237.760210Q549.134993,239.148120,556.462665,240.253606C560.210835,240.818453,565.664422,240.648999,569.122108,241.956216L572.158126,242.262847Q575.297218,242.569478,578.426940,242.835763Q585.679649,243.440956,592.941728,243.828280Q606.228990,244.530304,619.534993,244.489958C637.646767,244.410841,655.739964,243.478797,673.733529,241.698000Q677.725329,241.310677,681.698389,240.891076L682.438653,240.810384C686.589751,240.124498,690.872035,239.777521,695.023133,239.196535C704.037482,237.986149,713.033089,236.630516,722.000586,235.161914C740.329136,232.200503,758.545242,228.851767,776.808199,225.430409C815.470571,218.168091,854.151684,211.414136,893.666764,208.606039C929.404736,206.133361,965.357795,207.346971,1000.761347,212.221060C1014.676428,213.455654,1028.319766,216.029742,1041.850659,219.087985C1072.089019,224.913977,1101.980673,232.055256,1131.984773,238.768865L1141.992387,240.987907C1144.372474,241.463992,1146.761933,241.964285,1149.160761,242.464578C1151.971889,242.997148,1154.689312,243.545857,1157.472328,244.078426C1187.279649,252.083114,1219.139092,249.662342,1249.696047,249.638134C1252.366618,249.638134,1255.037189,249.638134,1257.717130,249.638134C1263.067643,249.581649,1268.418155,249.452542,1273.778038,249.202395L1280,249.202395L1280,0Z"/>
            <text x="600" dy="-15" font-family="Verdana">
                <textPath href="#wave" fill="#052959" font-weight="500" alignment-baseline="text-after-edge" textLength="750" word-spacing="25" font-size="1.2rem">
                    CINEMA ET CONCERTS EN PLEIN AIR
                </textPath>
            </text>
        </g>
    </g>
</svg>
